<svg width="22" height="22" viewBox="0 0 22 22" fill="none" xmlns="http://www.w3.org/2000/svg">
<path d="M20.9971 16.9972V15.4973C20.9971 15.2209 20.7735 14.9973 20.4972 14.9973C20.2209 14.9973 19.9973 15.221 19.9973 15.4973V15.5122C19.0963 14.1153 18.116 12.8641 17.5791 12.2059C17.4048 11.9916 17.09 11.9584 16.8762 12.1346C16.6619 12.309 16.6302 12.6239 16.8049 12.8377C17.7803 14.0334 18.5512 15.0942 19.1526 16.0228C18.8885 15.9381 18.6102 16.0784 18.5237 16.339C18.4363 16.6012 18.5779 16.8844 18.8395 16.9713L19.9444 17.3397C21.0453 19.3426 21.1659 20.5013 20.8336 20.8334C20.4792 21.1874 19.1778 21.0649 16.679 19.5576C15.1646 18.6442 13.4783 17.3831 11.7547 15.8895C12.4624 15.2496 13.172 14.5756 13.8746 13.8728C16.3805 11.3663 18.5242 8.77544 19.9974 6.49203V6.49765C19.9974 6.77403 20.2209 6.99762 20.4972 6.99762C20.7735 6.99762 20.9971 6.77398 20.9971 6.49765V4.9977C20.9971 4.95083 20.9777 4.90883 20.9651 4.86486C22.1134 2.70276 22.3075 1.22128 21.5404 0.454452C20.0536 -1.03228 16.1221 1.47051 13.9108 3.09496C13.6882 3.25804 13.6404 3.57102 13.8039 3.79368C13.9665 4.01535 14.2793 4.06321 14.5024 3.9006C18.0946 1.26253 20.3039 0.630702 20.8336 1.16147C21.1549 1.48289 21.0732 2.59274 19.9329 4.65903L18.8396 5.02358C18.5779 5.11048 18.4363 5.3937 18.5237 5.65587C18.6091 5.91317 18.8815 6.05229 19.1425 5.9734C17.7087 8.19194 15.6171 10.7154 13.1679 13.1658C12.4485 13.8852 11.7229 14.5714 11.0001 15.2224C10.2773 14.5714 9.55159 13.8852 8.83225 13.1658C6.38285 10.7155 4.29129 8.19199 2.85749 5.97345C3.11853 6.05229 3.39083 5.91322 3.47628 5.65592C3.56365 5.3937 3.42209 5.11053 3.16044 5.02362L2.06708 4.65908C0.92671 2.59274 0.8451 1.48289 1.16638 1.16147C1.69747 0.630233 3.90729 1.26304 7.50241 3.90449C7.72403 4.06757 8.03791 4.01971 8.20094 3.79757C8.36448 3.57543 8.31662 3.26244 8.09402 3.09885C5.8818 1.47201 1.94549 -1.03373 0.459555 0.454452C-0.307459 1.22128 -0.113444 2.7028 1.03485 4.86486C1.02233 4.90887 1.00288 4.95087 1.00288 4.9977V6.49765C1.00288 6.77403 1.22643 6.99762 1.50275 6.99762C1.77904 6.99762 2.00263 6.77398 2.00263 6.49765V6.49203C3.47576 8.77544 5.61949 11.3663 8.12538 13.8728C8.82803 14.5756 9.53757 15.2496 10.2453 15.8895C8.52175 17.3831 6.83538 18.6442 5.32099 19.5576C2.81975 21.0658 1.51888 21.1855 1.16643 20.8334C0.834319 20.5012 0.954881 19.3424 2.05588 17.3396L3.16048 16.9713C3.42214 16.8844 3.5637 16.6012 3.47633 16.339C3.3898 16.0785 3.11173 15.9382 2.84778 16.0227C3.44656 15.0983 4.21292 14.0431 5.18238 12.8538C5.35666 12.64 5.32441 12.325 5.11062 12.1502C4.89729 11.9764 4.58243 12.0096 4.40721 12.222C3.87312 12.8773 2.89916 14.1215 2.00263 15.5115V15.4972C2.00263 15.2209 1.77908 14.9973 1.50275 14.9973C1.22647 14.9973 1.00288 15.2209 1.00288 15.4972V16.9972C1.00288 17.0509 1.02318 17.0997 1.03954 17.1494C0.102181 18.9223 -0.419161 20.662 0.459555 21.5405C0.766116 21.8471 1.1864 22 1.71894 22C2.70889 22 4.0864 21.4702 5.83737 20.4141C7.42741 19.4546 9.19759 18.1258 10.9999 16.5563C12.8023 18.1258 14.5724 19.4546 16.1625 20.4141C17.9135 21.4707 19.291 22.0004 20.2814 22C20.8135 22 21.2337 21.8471 21.5403 21.5405C22.419 20.6621 21.8982 18.9231 20.9603 17.1496C20.9767 17.0998 20.9971 17.0509 20.9971 16.9972Z" fill="white"/>
<path d="M6 6.5C6 6.77637 6.22364 7.00001 6.50001 7.00001C6.77639 7.00001 7.00003 6.77637 7.00003 6.5C7.00003 6.22414 7.22414 5.99998 7.50004 5.99998C7.7759 5.99998 8.00006 6.22409 8.00006 6.5C8.00006 6.7759 7.77595 7.00001 7.50004 7.00001C7.22367 7.00001 7.00003 7.22365 7.00003 7.50003C7.00003 7.7764 7.22367 8.00004 7.50004 8.00004C7.7759 8.00004 8.00006 8.22415 8.00006 8.50005C8.00006 8.77591 7.77595 9.00007 7.50004 9.00007C7.22418 9.00007 7.00003 8.77596 7.00003 8.50005C7.00003 8.22368 6.77639 8.00004 6.50001 8.00004C6.22364 8.00004 6 8.22359 6 8.49996C6 9.32711 6.67284 9.99996 7.5 9.99996C8.32715 9.99996 8.99999 9.32711 8.99999 8.49996C8.99999 8.11615 8.85496 7.76557 8.61716 7.49998C8.85496 7.23434 8.99999 6.88376 8.99999 6.5C8.99999 5.67284 8.32715 5 7.5 5C6.67284 5 6 5.67284 6 6.5Z" fill="white"/>
<path d="M14.5 10C15.3271 10 16 9.32716 16 8.5V6.5C16 5.67284 15.3271 5 14.5 5C13.6728 5 13 5.67284 13 6.5V8.5C13 9.32716 13.6728 10 14.5 10ZM14 6.50004C14 6.22418 14.2241 6.00003 14.5 6.00003C14.7759 6.00003 15.0001 6.22414 15.0001 6.50004V8.50005C15.0001 8.77591 14.7759 9.00007 14.5 9.00007C14.2242 9.00007 14 8.77596 14 8.50005V6.50004Z" fill="white"/>
<path d="M11 10C11.8271 10 12.5 9.32716 12.5 8.5C12.5 7.67285 11.8271 7.00001 11 7.00001C10.8464 7.00001 10.701 7.02996 10.5613 7.07309C10.6743 6.61807 11.0055 6.00003 12 6.00003C12.2763 6.00003 12.5 5.77639 12.5 5.50001C12.5 5.22364 12.2763 5 12 5C10.0224 5 9.5 6.63523 9.5 7.49998V8.49996C9.5 9.32716 10.1728 10 11 10ZM11 8.00004C11.2759 8.00004 11.5 8.22415 11.5 8.50005C11.5 8.77591 11.2759 9.00007 11 9.00007C10.7241 9.00007 10.5 8.77591 10.5 8.5C10.5 8.22415 10.7241 8.00004 11 8.00004Z" fill="white"/>
<path d="M18 4.99998C18 4.44873 17.5512 4 17 4C16.4487 4 16 4.44873 16 4.99998C16 5.55123 16.4487 5.99996 17 5.99996C17.5512 5.99996 18 5.55123 18 4.99998Z" fill="white"/>
</svg>
