<svg width="648" height="648" viewBox="0 0 648 648" fill="none" xmlns="http://www.w3.org/2000/svg">
<circle cx="324" cy="324" r="324" fill="#009FE3"/>
<path fill-rule="evenodd" clip-rule="evenodd" d="M92.9259 459.762C84.8256 450.917 83.4941 438.644 88.0223 424.068L88.5871 424.244L88.0223 424.068C90.4145 416.368 94.4416 408.023 99.9668 399.191C99.4879 399.28 98.938 399.28 97.9454 399.28H82.139C76.627 399.28 73.871 399.28 72.5948 398.19C71.4874 397.245 70.8998 395.826 71.014 394.374C71.1457 392.701 73.0945 390.752 76.9921 386.855L82.7634 381.083L87.3127 376.534L103.378 360.469C104.165 359.682 104.558 359.289 105.017 359.008C105.424 358.758 105.868 358.574 106.332 358.463C106.856 358.337 107.412 358.337 108.525 358.337H125.241C126.354 358.337 126.91 358.337 127.434 358.212C127.898 358.1 128.341 357.916 128.748 357.667C129.207 357.385 129.601 356.992 130.388 356.205L130.673 355.92L130.685 355.909C131.464 355.129 131.854 354.738 132.135 354.28C132.384 353.874 132.568 353.43 132.68 352.966C132.805 352.442 132.805 351.886 132.805 350.773V340.14V321.943V319.1V311.31C132.805 310.198 132.805 309.641 132.68 309.118C132.568 308.654 132.384 308.21 132.135 307.803C131.855 307.346 131.463 306.954 130.683 306.173L130.682 306.173L130.677 306.168L130.673 306.164L130.388 305.878L130.388 305.878C129.601 305.091 129.207 304.698 128.748 304.417C128.341 304.167 127.898 303.983 127.434 303.872C126.91 303.746 126.354 303.746 125.241 303.746H108.525C107.412 303.746 106.856 303.746 106.332 303.621C105.868 303.509 105.424 303.325 105.017 303.076C104.558 302.795 104.165 302.401 103.378 301.614L87.3127 285.549L82.7634 281L76.9921 275.229L76.9919 275.229L76.9917 275.228L76.9914 275.228C73.0943 271.331 71.1457 269.382 71.014 267.709C70.8998 266.257 71.4874 264.839 72.5948 263.893C73.871 262.803 76.627 262.803 82.139 262.803H97.9454C99.0581 262.803 99.6145 262.803 100.138 262.929C100.602 263.04 101.046 263.224 101.453 263.473C101.912 263.755 102.305 264.148 103.092 264.935L103.092 264.935L119.157 281L123.707 285.549L141.904 303.746L144.321 306.164L144.325 306.168L144.331 306.173L144.334 306.176L144.334 306.176C145.111 306.955 145.503 307.346 145.783 307.803C146.032 308.21 146.216 308.654 146.327 309.118C146.453 309.641 146.453 310.198 146.453 311.31V319.1V321.943V340.14V344.951C152.931 338.836 159.864 332.651 167.224 326.432C164.798 325.961 163.724 322.87 165.592 321.001L169.984 316.61C152.469 301.472 137.528 286.584 125.593 272.455C110.304 254.356 99.9368 237.492 95.4154 222.932C90.8862 208.356 92.2165 196.083 100.318 187.238C108.383 178.431 122.407 173.855 140.879 173.109C159.361 172.363 182.294 175.453 208.155 181.994C242.757 190.75 282.582 205.685 323.958 225.872C365.333 205.685 405.158 190.75 439.76 181.994C465.622 175.453 488.554 172.363 507.036 173.109C525.508 173.855 539.533 178.431 547.597 187.238C555.699 196.083 557.029 208.356 552.5 222.932C547.978 237.492 537.611 254.356 522.322 272.455C509.385 287.77 492.917 303.977 473.466 320.427C483.482 328.615 492.781 336.764 501.294 344.793V340.14V321.943V319.1V311.31C501.294 310.198 501.294 309.641 501.42 309.118C501.532 308.654 501.715 308.21 501.965 307.803C502.245 307.344 502.638 306.952 503.423 306.167L503.426 306.164L503.426 306.164L505.844 303.746L524.041 285.549L528.59 281L544.655 264.935C545.441 264.148 545.835 263.755 546.294 263.473C546.701 263.224 547.145 263.04 547.609 262.929C548.133 262.803 548.689 262.803 549.802 262.803H565.608C571.12 262.803 573.876 262.803 575.153 263.893C576.26 264.839 576.847 266.257 576.733 267.709C576.602 269.382 574.653 271.33 570.757 275.226L570.756 275.228L570.755 275.229L564.984 281L560.435 285.549L544.37 301.614L544.369 301.615L544.368 301.616C543.582 302.402 543.189 302.795 542.73 303.076C542.323 303.325 541.879 303.509 541.415 303.621C540.892 303.746 540.335 303.746 539.223 303.746H522.506C521.394 303.746 520.837 303.746 520.314 303.872C519.85 303.983 519.406 304.167 518.999 304.417C518.539 304.698 518.146 305.091 517.359 305.878L517.074 306.164L517.073 306.164L517.071 306.167C516.286 306.952 515.893 307.344 515.613 307.803C515.363 308.21 515.179 308.654 515.068 309.118C514.942 309.641 514.942 310.198 514.942 311.31V319.1V321.943V340.14V350.773C514.942 351.886 514.942 352.442 515.068 352.966C515.179 353.43 515.363 353.874 515.613 354.28C515.892 354.738 516.284 355.13 517.066 355.912L517.074 355.92L517.359 356.205C518.146 356.992 518.539 357.385 518.999 357.667C519.406 357.916 519.85 358.1 520.314 358.212C520.837 358.337 521.394 358.337 522.506 358.337H539.223C540.335 358.337 540.892 358.337 541.415 358.463C541.879 358.574 542.323 358.758 542.73 359.008C543.189 359.289 543.583 359.682 544.37 360.469L560.435 376.534L564.984 381.083L570.755 386.855L570.756 386.855L570.757 386.856C574.653 390.753 576.602 392.701 576.733 394.374C576.847 395.826 576.26 397.245 575.153 398.19C573.876 399.28 571.12 399.28 565.608 399.28H549.802C548.935 399.28 548.406 399.28 547.967 399.221C553.483 408.042 557.503 416.377 559.893 424.068C564.421 438.644 563.09 450.917 554.989 459.762C546.924 468.57 532.901 473.145 514.429 473.891C495.948 474.637 473.013 471.548 447.154 465.005C410.495 455.73 367.974 439.518 323.958 417.473C279.941 439.518 237.42 455.73 200.762 465.005C174.903 471.548 151.967 474.637 133.486 473.891C115.014 473.145 100.992 468.57 92.9259 459.762ZM501.294 346.423V350.773C501.294 351.886 501.294 352.442 501.42 352.966C501.532 353.43 501.715 353.874 501.965 354.28C502.245 354.738 502.636 355.13 503.418 355.912L503.426 355.92L505.844 358.337L524.041 376.534L528.59 381.083L544.655 397.149C545.328 397.822 545.713 398.207 546.098 398.48C552.018 407.741 556.287 416.448 558.763 424.42C563.219 438.764 561.83 450.539 554.118 458.961C546.37 467.421 532.74 471.965 514.382 472.706C496.054 473.447 473.24 470.383 447.443 463.856C411.098 454.66 368.948 438.619 325.28 416.81C342.93 407.929 360.814 398.113 378.65 387.434C379.651 386.834 380.649 386.234 381.644 385.633H387.563H388.132H410.309H442.723H459.783H465.469H501.919C507.431 385.633 510.186 385.633 511.463 384.543C512.57 383.597 513.158 382.178 513.043 380.726C512.912 379.053 510.963 377.105 507.066 373.207L498.877 365.018C498.09 364.231 497.697 363.838 497.238 363.557C496.83 363.307 496.387 363.124 495.923 363.012C495.399 362.886 494.843 362.886 493.73 362.886H493.73H487.647H464.9H464.276C458.764 362.886 456.008 362.886 454.732 361.796C453.625 360.851 453.037 359.432 453.151 357.98C453.283 356.307 455.232 354.358 459.129 350.461L459.129 350.461L460.351 349.239L469.45 340.14C471.128 338.462 469.939 335.591 467.565 335.591H454.772C460.939 330.786 466.868 325.986 472.546 321.204C482.927 329.685 492.534 338.12 501.294 346.423ZM452.842 335.591C459.367 330.532 465.629 325.476 471.611 320.443C469.83 318.994 468.027 317.544 466.201 316.093L466.122 316.172L457.934 324.361C457.147 325.148 456.753 325.541 456.294 325.822C455.887 326.072 455.444 326.255 454.98 326.367C454.456 326.492 453.9 326.492 452.787 326.492H433.056H430.391H430.212C427.7 326.492 425.663 328.529 425.663 331.042C425.663 333.554 427.7 335.591 430.212 335.591H430.391H432.203H433.056H451.253H452.842ZM467.044 315.25C470.328 311.956 471.98 310.188 472.1 308.652C472.214 307.201 471.627 305.782 470.52 304.836C469.243 303.746 466.488 303.746 460.976 303.746H452.131C450.105 302.229 448.056 300.713 445.985 299.197H493.73C494.487 299.197 494.987 299.197 495.394 299.157C488.327 305.917 480.693 312.769 472.533 319.666C470.726 318.195 468.896 316.722 467.044 315.25ZM513.054 281.179C515.987 277.981 518.777 274.816 521.419 271.689C536.66 253.647 546.916 236.924 551.37 222.58C555.827 208.237 554.439 196.461 546.725 188.039L547.115 187.681L546.725 188.039C538.979 179.58 525.347 175.034 506.988 174.294C488.661 173.553 465.849 176.618 440.05 183.143C405.768 191.818 366.321 206.582 325.308 226.533C345.337 236.352 365.72 247.398 386.04 259.566C395.324 265.125 404.336 270.762 413.051 276.451H455.802H462.341H501.919C507.431 276.451 510.186 276.451 511.463 277.541C512.525 278.448 513.109 279.79 513.054 281.179ZM410.879 276.451C402.653 271.108 394.164 265.811 385.433 260.583C364.858 248.263 344.222 237.096 323.958 227.191C303.694 237.096 283.057 248.263 262.482 260.583C253.751 265.811 245.262 271.108 237.036 276.451H410.879ZM234.865 276.451C243.58 270.762 252.591 265.125 261.875 259.566C282.196 247.398 302.578 236.352 322.608 226.533C281.594 206.582 242.147 191.818 207.865 183.143C182.066 176.618 159.254 173.553 140.927 174.294C122.568 175.034 108.936 179.58 101.19 188.039L100.8 187.681L101.19 188.039C93.4759 196.461 92.0881 208.237 96.5451 222.58C100.999 236.924 111.255 253.647 126.496 271.689C129.086 274.755 131.819 277.858 134.689 280.991C134.692 279.67 135.27 278.407 136.284 277.541C137.56 276.451 140.317 276.451 145.829 276.451H234.865ZM152.537 299.172C152.911 299.197 153.37 299.197 154.017 299.197H201.93C199.859 300.713 197.81 302.229 195.784 303.746H185.862C184.749 303.746 184.193 303.746 183.669 303.872C183.205 303.983 182.761 304.167 182.355 304.417C181.895 304.698 181.502 305.091 180.715 305.878L170.823 315.77C164.369 310.194 158.267 304.653 152.537 299.172ZM197.763 303.746C199.799 302.229 201.858 300.713 203.939 299.197H321.144C323.692 299.197 324.966 299.197 325.939 299.693C326.795 300.129 327.491 300.825 327.927 301.681C328.423 302.654 328.423 303.928 328.423 306.476V355.608C328.423 358.155 328.423 359.43 327.927 360.403C327.491 361.258 326.795 361.954 325.939 362.391C324.966 362.886 323.692 362.886 321.144 362.886H281.396H281.396C280.283 362.886 279.727 362.886 279.203 363.012C278.739 363.124 278.295 363.307 277.889 363.557C277.429 363.838 277.036 364.231 276.249 365.018L268.061 373.207L268.061 373.207C264.163 377.105 262.214 379.053 262.082 380.726C262.056 381.059 262.067 381.389 262.112 381.713C258.746 379.647 255.419 377.573 252.13 375.49L259.908 367.712C261.689 365.931 260.428 362.886 257.91 362.886C255.392 362.886 254.13 359.842 255.911 358.061L262.735 351.238C263.39 350.582 263.718 350.254 264.09 350.005C264.587 349.674 265.144 349.443 265.73 349.326C266.17 349.239 266.633 349.239 267.56 349.239H275.366C276.479 349.239 277.035 349.239 277.559 349.113C278.023 349.002 278.467 348.818 278.874 348.568C279.333 348.287 279.726 347.894 280.513 347.107L292.029 335.591L320.657 306.963C321.844 305.776 321.003 303.746 319.324 303.746H314.775H267.748C266.636 303.746 266.079 303.746 265.556 303.872C265.092 303.983 264.648 304.167 264.241 304.417C263.782 304.698 263.388 305.091 262.602 305.878L254.413 314.067L254.412 314.067L254.41 314.07C250.514 317.965 248.567 319.914 248.435 321.586C248.32 323.038 248.908 324.457 250.016 325.402C251.292 326.492 254.048 326.492 259.56 326.492H278.381H281.046H281.224C283.737 326.492 285.774 328.529 285.774 331.042C285.774 333.554 283.737 335.591 281.224 335.591H281.046H278.381H263.199C262.086 335.591 261.53 335.591 261.007 335.717C260.542 335.828 260.098 336.012 259.692 336.261C259.232 336.543 258.839 336.936 258.052 337.723L246.536 349.239L235.021 360.755C234.234 361.542 233.84 361.935 233.381 362.216C233.099 362.389 232.798 362.531 232.486 362.639C215.619 351.24 199.971 339.688 185.727 328.202C185.905 327.979 186.105 327.771 186.326 327.583C187.602 326.492 190.358 326.492 195.87 326.492H216.226C217.339 326.492 217.895 326.492 218.419 326.367C218.883 326.255 219.326 326.072 219.733 325.822C220.192 325.541 220.586 325.148 221.373 324.361L229.562 316.172V316.172L229.562 316.171L229.564 316.169C233.46 312.273 235.408 310.325 235.539 308.652C235.654 307.201 235.066 305.782 233.959 304.836C232.682 303.746 229.927 303.746 224.415 303.746H197.763ZM168.818 326.636C160.855 333.34 153.387 340.003 146.453 346.582V350.773C146.453 351.886 146.453 352.442 146.327 352.966C146.216 353.43 146.032 353.874 145.783 354.28C145.502 354.738 145.112 355.129 144.332 355.909L144.321 355.92L141.904 358.337L123.707 376.534L119.157 381.083L103.092 397.149C102.613 397.628 102.28 397.961 101.989 398.211C95.9798 407.572 91.6526 416.371 89.1519 424.42C84.6961 438.764 86.0849 450.539 93.7976 458.961C101.545 467.421 115.176 471.965 133.534 472.706C151.861 473.447 174.675 470.383 200.472 463.856C236.817 454.66 278.967 438.619 322.636 416.81C304.985 407.929 287.102 398.113 269.266 387.434C268.122 386.749 266.982 386.063 265.847 385.376C264.855 385.217 264.151 384.959 263.663 384.543C263.308 384.239 263.006 383.887 262.764 383.501C258.883 381.129 255.051 378.744 251.272 376.348L244.119 383.501C243.332 384.288 242.939 384.681 242.48 384.962C242.073 385.212 241.629 385.396 241.165 385.507C240.641 385.633 240.085 385.633 238.973 385.633H238.972H145.829C140.317 385.633 137.56 385.633 136.284 384.543C135.177 383.597 134.589 382.178 134.703 380.726C134.835 379.053 136.784 377.105 140.682 373.207L140.682 373.207L148.87 365.018C149.657 364.231 150.05 363.838 150.51 363.557C150.916 363.307 151.361 363.124 151.825 363.012C152.348 362.886 152.904 362.886 154.017 362.886H154.017H188.021C193.533 362.886 196.288 362.886 197.565 361.796C198.672 360.851 199.26 359.432 199.145 357.98C199.014 356.307 197.065 354.358 193.168 350.461L170.142 327.435C169.768 327.062 169.313 326.79 168.818 326.636ZM230.734 362.883C230.488 362.886 230.205 362.886 229.874 362.886H217.707C216.594 362.886 216.038 362.886 215.514 362.761C215.05 362.649 214.606 362.466 214.199 362.216C213.74 361.935 213.346 361.542 212.56 360.755L190.723 338.918C186.826 335.021 184.877 333.072 184.745 331.399C184.686 330.645 184.816 329.9 185.109 329.226C199.042 340.454 214.308 351.741 230.734 362.883ZM268.495 385.59C268.954 385.866 269.413 386.141 269.873 386.417C287.952 397.242 306.078 407.177 323.958 416.148C341.837 407.177 359.963 397.242 378.043 386.417C378.479 386.155 378.914 385.894 379.349 385.633H350.545C345.033 385.633 342.277 385.633 341 384.543C339.893 383.597 339.305 382.178 339.42 380.726C339.552 379.053 341.5 377.105 345.398 373.207L353.587 365.018C354.373 364.231 354.767 363.838 355.226 363.557C355.633 363.307 356.077 363.124 356.541 363.012C357.064 362.886 357.62 362.886 358.733 362.886H358.733H369.991C375.503 362.886 378.258 362.886 379.535 361.796C380.642 360.851 381.229 359.432 381.115 357.98C380.984 356.307 379.035 354.358 375.138 350.461L375.137 350.461L356.316 331.639C354.515 329.838 353.614 328.937 353.276 327.898C352.979 326.984 352.979 326.001 353.276 325.087C353.614 324.048 354.515 323.147 356.316 321.346L371.784 305.878C372.57 305.091 372.964 304.698 373.423 304.417C373.83 304.167 374.274 303.983 374.738 303.872C375.261 303.746 375.818 303.746 376.93 303.746H423.957H428.506H442.154H450.152C448.116 302.229 446.057 300.713 443.976 299.197H442.154H433.056H349.349C346.801 299.197 345.528 299.197 344.555 299.693C343.699 300.129 343.003 300.825 342.567 301.681C342.071 302.654 342.071 303.928 342.071 306.476V359.871C342.071 360.984 342.071 361.54 341.945 362.064C341.834 362.528 341.65 362.972 341.4 363.379C341.12 363.836 340.729 364.228 339.95 365.008L339.939 365.018L321.456 383.501C320.669 384.288 320.276 384.681 319.817 384.962C319.41 385.212 318.966 385.396 318.502 385.507C317.979 385.633 317.422 385.633 316.31 385.633H316.309H273.208C271.336 385.633 269.781 385.633 268.495 385.59ZM415.062 362.886H410.309H403.769C402.837 362.886 402.371 362.886 401.93 362.798C401.341 362.681 400.781 362.447 400.283 362.113C399.911 361.862 399.585 361.534 398.934 360.879L398.924 360.869L393.919 355.824C391.499 353.385 393.227 349.239 396.662 349.239H396.946H418.839H434.605C428.291 353.803 421.773 358.357 415.062 362.886ZM417.176 362.886C423.854 358.357 430.341 353.803 436.624 349.239H437.889C441.142 349.239 442.771 353.172 440.471 355.471L435.055 360.888C434.399 361.543 434.071 361.871 433.699 362.12C433.202 362.451 432.645 362.682 432.059 362.799C431.619 362.886 431.156 362.886 430.229 362.886H417.176ZM410.025 335.591C410.047 335.591 410.068 335.59 410.09 335.588C410.128 335.584 410.165 335.578 410.201 335.568C412.498 335.337 414.29 333.399 414.29 331.042C414.29 328.529 412.253 326.492 409.741 326.492H408.425H406.897H406.329H401.211H375.739C371.695 326.492 369.661 331.375 372.51 334.246C373.364 335.107 374.526 335.591 375.739 335.591H406.897H409.741H410.025ZM128.256 326.379C128.256 323.831 128.256 322.557 127.76 321.584C127.324 320.728 126.628 320.032 125.772 319.596C124.799 319.1 123.525 319.1 120.977 319.1H112.788C110.241 319.1 108.967 319.1 107.994 319.596C107.138 320.032 106.442 320.728 106.006 321.584C105.51 322.557 105.51 323.831 105.51 326.379V332.861C105.51 335.409 105.51 336.683 106.006 337.656C106.442 338.512 107.138 339.208 107.994 339.644C108.967 340.14 110.241 340.14 112.788 340.14H120.977C123.525 340.14 124.799 340.14 125.772 339.644C126.628 339.208 127.324 338.512 127.76 337.656C128.256 336.683 128.256 335.409 128.256 332.861V326.379ZM542.238 326.379C542.238 323.831 542.238 322.557 541.742 321.584C541.306 320.728 540.61 320.032 539.754 319.596C538.78 319.1 537.506 319.1 534.959 319.1H526.77C524.222 319.1 522.948 319.1 521.975 319.596C521.119 320.032 520.423 320.728 519.987 321.584C519.491 322.557 519.491 323.831 519.491 326.379V332.861C519.491 335.409 519.491 336.683 519.987 337.656C520.423 338.512 521.119 339.208 521.975 339.644C522.948 340.14 524.222 340.14 526.77 340.14H534.959C537.506 340.14 538.78 340.14 539.754 339.644C540.61 339.208 541.306 338.512 541.742 337.656C542.238 336.683 542.238 335.409 542.238 332.861V326.379ZM330.765 192.858V203.401H328.853V192.858H330.765ZM307.561 196.119V203.401H309.472V199.381C309.472 199.053 309.519 198.776 309.613 198.551C309.707 198.317 309.824 198.13 309.964 197.989C310.114 197.839 310.278 197.731 310.456 197.666C310.635 197.6 310.808 197.567 310.977 197.567C311.211 197.567 311.398 197.619 311.539 197.722C311.68 197.816 311.787 197.947 311.862 198.115C311.937 198.275 311.984 198.462 312.003 198.678C312.022 198.884 312.031 199.095 312.031 199.31V203.401H313.943V199.381C313.943 199.071 313.985 198.804 314.069 198.579C314.154 198.354 314.266 198.167 314.407 198.017C314.547 197.867 314.702 197.755 314.871 197.68C315.049 197.605 315.231 197.567 315.419 197.567C315.691 197.567 315.901 197.628 316.051 197.75C316.201 197.862 316.309 198.008 316.375 198.186C316.44 198.364 316.478 198.556 316.487 198.762C316.497 198.959 316.501 199.142 316.501 199.31V203.401H318.413V198.551C318.413 197.951 318.319 197.483 318.132 197.146C317.954 196.808 317.738 196.555 317.485 196.386C317.232 196.218 316.975 196.115 316.712 196.077C316.45 196.03 316.239 196.007 316.08 196.007C315.611 196.007 315.161 196.115 314.73 196.33C314.299 196.536 313.952 196.883 313.69 197.37H313.648C313.601 197.211 313.53 197.052 313.437 196.892C313.352 196.733 313.231 196.588 313.071 196.457C312.912 196.325 312.715 196.218 312.481 196.133C312.256 196.049 311.979 196.007 311.651 196.007C311.183 196.007 310.747 196.115 310.344 196.33C309.941 196.546 309.632 196.888 309.416 197.356H309.374V196.119H307.561ZM327.021 203.401V196.119H325.109V199.971C325.109 200.215 325.072 200.458 324.997 200.702C324.922 200.936 324.809 201.147 324.66 201.335C324.519 201.522 324.341 201.672 324.125 201.785C323.919 201.897 323.676 201.953 323.394 201.953C323.094 201.953 322.86 201.902 322.691 201.799C322.532 201.696 322.41 201.569 322.326 201.419C322.251 201.269 322.204 201.114 322.185 200.955C322.167 200.786 322.157 200.641 322.157 200.519V196.119H320.245V200.829C320.245 201.457 320.339 201.949 320.527 202.305C320.714 202.661 320.939 202.928 321.201 203.106C321.473 203.284 321.759 203.396 322.059 203.443C322.359 203.49 322.617 203.514 322.832 203.514C322.973 203.514 323.137 203.5 323.324 203.471C323.521 203.443 323.722 203.382 323.929 203.289C324.144 203.195 324.355 203.068 324.561 202.909C324.767 202.75 324.959 202.534 325.137 202.262H325.18V203.401H327.021ZM331.814 196.119V197.525H333.248V201.264C333.248 201.386 333.257 201.574 333.276 201.827C333.304 202.07 333.384 202.319 333.515 202.572C333.646 202.825 333.857 203.045 334.147 203.232C334.438 203.42 334.846 203.514 335.37 203.514C335.539 203.514 335.703 203.504 335.862 203.486C336.031 203.476 336.181 203.457 336.312 203.429C336.453 203.411 336.57 203.392 336.664 203.373C336.757 203.354 336.818 203.34 336.847 203.331V201.981C336.734 202.019 336.612 202.052 336.481 202.08C336.359 202.098 336.233 202.108 336.101 202.108C335.867 202.108 335.684 202.07 335.553 201.995C335.431 201.92 335.338 201.827 335.272 201.714C335.216 201.592 335.183 201.457 335.174 201.307C335.164 201.147 335.16 200.988 335.16 200.829V197.525H336.847V196.119H335.16V194.067L333.248 194.671V196.119H331.814ZM340.101 196.119V203.401H338.189V196.119H340.101ZM340.129 195.023H338.161V193.055H340.129V195.023ZM333.898 444.773V455.316H331.986V444.773H333.898ZM317.506 451.675C317.506 451.066 317.6 450.527 317.788 450.058C317.975 449.59 318.233 449.201 318.561 448.891C318.898 448.573 319.296 448.334 319.756 448.175C320.215 448.006 320.716 447.922 321.26 447.922C321.803 447.922 322.305 448.006 322.764 448.175C323.223 448.334 323.617 448.573 323.945 448.891C324.282 449.201 324.545 449.59 324.732 450.058C324.92 450.527 325.013 451.066 325.013 451.675C325.013 452.284 324.92 452.823 324.732 453.292C324.545 453.76 324.282 454.154 323.945 454.472C323.617 454.782 323.223 455.021 322.764 455.189C322.305 455.349 321.803 455.428 321.26 455.428C320.716 455.428 320.215 455.349 319.756 455.189C319.296 455.021 318.898 454.782 318.561 454.472C318.233 454.154 317.975 453.76 317.788 453.292C317.6 452.823 317.506 452.284 317.506 451.675ZM319.503 451.675C319.503 452.097 319.554 452.457 319.657 452.757C319.76 453.057 319.896 453.306 320.065 453.502C320.234 453.69 320.421 453.83 320.627 453.924C320.833 454.008 321.044 454.051 321.26 454.051C321.466 454.051 321.672 454.008 321.878 453.924C322.094 453.83 322.286 453.69 322.455 453.502C322.623 453.306 322.759 453.057 322.862 452.757C322.966 452.457 323.017 452.097 323.017 451.675C323.017 451.253 322.966 450.892 322.862 450.592C322.759 450.293 322.623 450.049 322.455 449.861C322.286 449.665 322.094 449.524 321.878 449.44C321.672 449.346 321.466 449.299 321.26 449.299C321.044 449.299 320.833 449.346 320.627 449.44C320.421 449.524 320.234 449.665 320.065 449.861C319.896 450.049 319.76 450.293 319.657 450.592C319.554 450.892 319.503 451.253 319.503 451.675ZM306.756 448.034L307.965 452.068L308.33 453.559H308.358L308.696 452.026L309.891 448.034H312.154L313.391 452.068L313.756 453.573H313.785L314.136 452.054L315.289 448.034H317.215L314.825 455.316H312.561L311.226 450.789L310.945 449.58H310.903L310.65 450.775L309.384 455.316H307.121L304.717 448.034H306.756ZM328.155 448.034H326.412V455.316H328.324V451.815C328.324 451.309 328.385 450.897 328.507 450.578C328.629 450.25 328.779 449.997 328.957 449.819C329.135 449.641 329.327 449.519 329.533 449.454C329.739 449.388 329.927 449.355 330.095 449.355C330.198 449.355 330.311 449.36 330.433 449.369C330.564 449.379 330.681 449.393 330.784 449.412V448.006C330.681 447.987 330.573 447.968 330.461 447.95C330.348 447.931 330.245 447.922 330.152 447.922C329.87 447.922 329.617 447.968 329.392 448.062C329.168 448.156 328.975 448.282 328.816 448.442C328.657 448.592 328.521 448.77 328.408 448.976C328.305 449.173 328.235 449.383 328.198 449.608H328.155V448.034ZM342.439 455.316V444.773H340.528V447.823L340.57 449.018H340.542C340.354 448.718 340.092 448.46 339.754 448.245C339.417 448.029 338.981 447.922 338.447 447.922C338.082 447.922 337.711 447.992 337.337 448.132C336.962 448.273 336.62 448.498 336.31 448.807C336.01 449.107 335.767 449.496 335.579 449.974C335.392 450.443 335.298 451.009 335.298 451.675C335.298 452.256 335.368 452.776 335.509 453.235C335.659 453.694 335.865 454.088 336.128 454.416C336.399 454.744 336.723 454.997 337.098 455.175C337.472 455.344 337.894 455.428 338.363 455.428C338.71 455.428 339.014 455.386 339.276 455.302C339.539 455.208 339.764 455.096 339.951 454.964C340.139 454.833 340.293 454.688 340.415 454.529C340.546 454.36 340.654 454.201 340.738 454.051H340.767V455.316H342.439ZM340.387 450.677C340.481 450.958 340.528 451.291 340.528 451.675C340.528 452.059 340.481 452.392 340.387 452.673C340.293 452.954 340.167 453.188 340.007 453.376C339.858 453.554 339.684 453.69 339.487 453.784C339.3 453.868 339.108 453.91 338.911 453.91C338.714 453.91 338.517 453.868 338.321 453.784C338.133 453.69 337.96 453.554 337.8 453.376C337.65 453.188 337.529 452.954 337.435 452.673C337.341 452.392 337.294 452.059 337.294 451.675C337.294 451.291 337.341 450.958 337.435 450.677C337.529 450.396 337.65 450.166 337.8 449.988C337.96 449.801 338.133 449.665 338.321 449.58C338.517 449.487 338.714 449.44 338.911 449.44C339.108 449.44 339.3 449.487 339.487 449.58C339.684 449.665 339.858 449.801 340.007 449.988C340.167 450.166 340.293 450.396 340.387 450.677Z" fill="white"/>
</svg>
