<svg width="74" height="29" viewBox="0 0 74 29" fill="none" xmlns="http://www.w3.org/2000/svg">
<path d="M11.9038 7.43731C11.4497 7.51729 11.1446 7.5489 11.1098 7.55277L9.75146 7.68886L10.0656 6.36083C10.0849 6.27891 10.5513 4.33363 11.4452 2.76953C12.254 1.35506 13.6878 0.258582 15.0184 0.0425102C15.8492 -0.0929376 16.6212 0.113459 17.194 0.623001C17.8074 1.16931 18.0996 1.93168 18.0177 2.77017C17.8893 4.07305 16.9018 5.35787 15.3074 6.29568C14.1922 6.95099 12.7739 7.28381 11.9038 7.43731ZM15.3132 1.96651C14.5605 2.09938 13.6478 2.83983 13.1357 3.73507C12.8423 4.24849 12.5997 4.8264 12.4127 5.34174C13.0364 5.18695 13.7478 4.95475 14.3219 4.61742C15.5435 3.8989 16.033 3.07074 16.0814 2.57925C16.1085 2.30062 15.9988 2.16388 15.9001 2.07616C15.8518 2.03295 15.7054 1.90266 15.3332 1.96329C15.3261 1.96393 15.3197 1.96522 15.3132 1.96651Z" fill="white"/>
<path d="M6.40788 6.29379C4.81412 5.35598 3.82664 4.07116 3.69828 2.76828C3.61573 1.93044 3.90791 1.16742 4.52129 0.62111C5.0934 0.110923 5.86609 -0.0948285 6.69684 0.0406193C8.02745 0.256691 9.46191 1.35382 10.2701 2.76763C11.164 4.33173 11.6304 6.27702 11.6497 6.35894L11.9638 7.68697L10.6055 7.55088C10.5706 7.54765 10.2656 7.51605 9.81149 7.43542C8.94205 7.28256 7.52372 6.94975 6.40788 6.29379ZM6.38338 1.9614C6.01122 1.90077 5.8648 2.03106 5.81643 2.07427C5.71775 2.16263 5.6081 2.29873 5.63519 2.57736C5.68356 3.06884 6.17375 3.89701 7.39472 4.61553C7.96811 4.95286 8.67954 5.18506 9.30389 5.33985C9.11684 4.82451 8.87368 4.2466 8.58085 3.73318C8.06873 2.83794 7.15672 2.09749 6.40337 1.96462C6.39627 1.96398 6.38983 1.96269 6.38338 1.9614Z" fill="white"/>
<path d="M21.7162 6.95508H0V12.3872H21.7162V6.95508Z" fill="white"/>
<path d="M21.7162 15.0977H0V20.5298H21.7162V15.0977Z" fill="white"/>
<path d="M21.7162 23.2383H0V28.6704H21.7162V23.2383Z" fill="white"/>
<path d="M28.2393 6.95312H31.0572L32.4478 11.4842L33.8384 6.95312H36.557V15.6431H34.6827V9.06418H34.6576L33.3166 13.4095H31.479L30.1381 9.06418H30.1136V15.6437H28.2393V6.95312V6.95312Z" fill="white"/>
<path d="M38.8228 15.5553V13.9783C39.0589 14.0899 39.4065 14.1518 39.642 14.1518C40.1012 14.1518 40.3121 13.9287 40.4237 13.6055L40.5353 13.2953L37.5806 6.95117H39.7529L41.3789 11.2591H41.4163L42.8192 6.95117H44.9296L42.1858 13.8661C41.9497 14.4621 41.6395 15.0955 41.2422 15.3805C40.8326 15.6908 40.3605 15.7901 39.9638 15.7901C39.642 15.7914 39.3195 15.7785 38.8228 15.5553Z" fill="white"/>
<path d="M44.6895 15.6682V14.0416C44.8133 14.079 44.9378 14.1164 45.1861 14.1164C45.7943 14.1164 46.1665 13.7436 46.1665 8.81521V6.95312H51.716V15.6431H49.6797V8.51787H47.9912V8.81586C47.9912 14.9239 47.1224 15.7927 45.6821 15.7927C45.3099 15.7927 44.95 15.7301 44.6895 15.6682Z" fill="white"/>
<path d="M53.8369 6.95312H55.8731V9.93233H56.3201C58.5795 9.93233 59.5605 10.9256 59.5605 12.7877C59.5605 14.6498 58.5802 15.6431 56.3201 15.6431H53.8369V6.95312ZM56.3195 11.4474H55.8725V14.1293H56.2079C57.1515 14.1293 57.5237 13.7565 57.5237 12.7883C57.5237 11.8196 57.1515 11.4474 56.3195 11.4474Z" fill="white"/>
<path d="M61.3526 8.51722H59.4653V6.95312H65.2754V8.51722H63.3882V15.6431H61.3519V8.51722H61.3526Z" fill="white"/>
<path d="M66.5342 6.95312H68.5704V10.6276L68.5085 12.7754H68.5704L70.7556 6.95312H73.0524V15.6431H71.0162V11.9686L71.0781 9.82075H71.0162L68.831 15.6431H66.5342V6.95312Z" fill="white"/>
<path d="M28.2456 19.9805H33.5094V21.5446H30.2567V23.3692H31.2003C32.3922 23.3692 34.0931 23.6672 34.0931 26.0137C34.0931 27.7642 32.8637 28.6704 31.2751 28.6704H28.2463V19.9805H28.2456ZM30.2315 27.2056H30.8894C31.5351 27.2056 32.0814 26.8457 32.0814 26.0137C32.0814 25.2687 31.684 24.834 30.8275 24.834H30.2315V27.2056Z" fill="white"/>
<path d="M38.6901 19.832C41.1856 19.832 42.3775 21.7689 42.3775 24.3263C42.3775 26.8837 41.1856 28.82 38.6901 28.82C36.1947 28.82 35.0156 26.8831 35.0156 24.3263C35.015 21.7689 36.1947 19.832 38.6901 19.832ZM38.6901 27.3552C39.8698 27.3552 40.2916 25.9897 40.2916 24.3263C40.2916 22.6629 39.8692 21.2968 38.6901 21.2968C37.5111 21.2968 37.1009 22.6622 37.1009 24.3263C37.1009 25.9897 37.5104 27.3552 38.6901 27.3552Z" fill="white"/>
<path d="M47.8532 25.0585H45.7428V28.6711H43.7065V19.9805H45.7428V23.4441H47.8532V19.9805H49.8894V28.6704H47.8532V25.0585Z" fill="white"/>
<path d="M52.1553 28.5827V27.0057C52.3914 27.1173 52.7391 27.1792 52.9745 27.1792C53.4337 27.1792 53.6446 26.956 53.7562 26.6329L53.8678 26.3226L50.9131 19.9785H53.0854L54.7114 24.2864H54.7488L56.1517 19.9785H58.2621L55.5183 26.8934C55.2822 27.4894 54.972 28.1228 54.5747 28.4079C54.1651 28.7181 53.693 28.8174 53.2963 28.8174C52.9751 28.8187 52.652 28.8065 52.1553 28.5827Z" fill="white"/>
<path d="M58.3438 24.2889C58.3438 21.0981 60.4793 19.832 62.2421 19.832C63.5333 19.832 64.2035 20.1178 64.5266 20.2545V21.9431C64.2286 21.7696 63.5953 21.4464 62.6645 21.4464C61.2991 21.4464 60.4296 22.5636 60.4296 24.3141C60.4296 26.0026 61.4107 27.1572 62.7013 27.1572C63.6946 27.1572 64.3525 26.8095 64.5511 26.6979V28.5104C64.2035 28.6219 63.4837 28.8206 62.3788 28.8206C60.0072 28.8206 58.3438 27.0449 58.3438 24.2889Z" fill="white"/>
</svg>
